<?xml version="1.0" encoding="UTF-8" standalone="no"?>
<!-- Created with Inkscape (http://www.inkscape.org/) -->

<svg
   xmlns:dc="http://purl.org/dc/elements/1.1/"
   xmlns:cc="http://creativecommons.org/ns#"
   xmlns:rdf="http://www.w3.org/1999/02/22-rdf-syntax-ns#"
   xmlns:svg="http://www.w3.org/2000/svg"
   xmlns="http://www.w3.org/2000/svg"
   xmlns:sodipodi="http://sodipodi.sourceforge.net/DTD/sodipodi-0.dtd"
   xmlns:inkscape="http://www.inkscape.org/namespaces/inkscape"
   width="48px"
   height="48px"
   id="svg5296"
   version="1.1"
   inkscape:version="0.47pre4 r22446"
   sodipodi:docname="automatic.svg"
   inkscape:export-filename="automatic-24.png"
   inkscape:export-xdpi="45"
   inkscape:export-ydpi="45">
  <defs
     id="defs5298">
    <inkscape:perspective
       sodipodi:type="inkscape:persp3d"
       inkscape:vp_x="0 : 24 : 1"
       inkscape:vp_y="0 : 1000 : 0"
       inkscape:vp_z="48 : 24 : 1"
       inkscape:persp3d-origin="24 : 16 : 1"
       id="perspective5304" />
    <inkscape:perspective
       id="perspective5314"
       inkscape:persp3d-origin="0.5 : 0.33333333 : 1"
       inkscape:vp_z="1 : 0.5 : 1"
       inkscape:vp_y="0 : 1000 : 0"
       inkscape:vp_x="0 : 0.5 : 1"
       sodipodi:type="inkscape:persp3d" />
    <linearGradient
       gradientTransform="matrix(0,-214.999,-214.999,0,100706,-51430.6)"
       gradientUnits="userSpaceOnUse"
       id="linearGradient3862"
       x1="-239.73441"
       x2="-238.879"
       y1="468.23441"
       y2="468.23441">
      <stop
         id="stop3864"
         offset="0"
         style="stop-color:#ffffff;stop-opacity:1;" />
      <stop
         id="stop3866"
         offset="1"
         style="stop-color:#000040;stop-opacity:1;" />
    </linearGradient>
    <linearGradient
       id="linearGradient5276">
      <stop
         style="stop-color:#000000;stop-opacity:0;"
         offset="0"
         id="stop5278" />
      <stop
         style="stop-color:#000000;stop-opacity:0;"
         offset="1"
         id="stop5280" />
    </linearGradient>
    <inkscape:perspective
       id="perspective5958"
       inkscape:persp3d-origin="0.5 : 0.33333333 : 1"
       inkscape:vp_z="1 : 0.5 : 1"
       inkscape:vp_y="0 : 1000 : 0"
       inkscape:vp_x="0 : 0.5 : 1"
       sodipodi:type="inkscape:persp3d" />
  </defs>
  <sodipodi:namedview
     id="base"
     pagecolor="#ffffff"
     bordercolor="#666666"
     borderopacity="1.0"
     inkscape:pageopacity="0.0"
     inkscape:pageshadow="2"
     inkscape:zoom="7"
     inkscape:cx="22.857143"
     inkscape:cy="25.142857"
     inkscape:current-layer="layer1"
     showgrid="true"
     inkscape:grid-bbox="true"
     inkscape:document-units="px"
     inkscape:window-width="1034"
     inkscape:window-height="905"
     inkscape:window-x="646"
     inkscape:window-y="107"
     inkscape:window-maximized="0" />
  <metadata
     id="metadata5301">
    <rdf:RDF>
      <cc:Work
         rdf:about="">
        <dc:format>image/svg+xml</dc:format>
        <dc:type
           rdf:resource="http://purl.org/dc/dcmitype/StillImage" />
        <dc:title></dc:title>
      </cc:Work>
    </rdf:RDF>
  </metadata>
  <g
     id="layer1"
     inkscape:label="Layer 1"
     inkscape:groupmode="layer">
    <path
       style="fill:none;stroke:#000000;stroke-width:0.2;stroke-miterlimit:4;stroke-opacity:1;stroke-dasharray:none"
       d="m 12.591262,10.199968 -0.0849,-4.9420554 1.922209,-0.140492 c 0,0 0,0 0,0 0,0 2.365139,0.213639 2.365139,0.213639 l -0.02028,4.9919264 1.378245,0.50594 0.986358,0.539978 3.166137,-3.6191067 c 0,0 1.396761,1.1825746 2.008617,1.8593746 0.456084,0.5044941 1.228446,1.6290051 1.228446,1.6290051 l -3.654613,2.937952 0.653699,1.348543 0.319774,1.059877 4.628284,-0.311606 c 0,0 0.19129,1.529554 0.192615,2.298358 0.0013,0.737446 -0.177159,2.205236 -0.177159,2.205236 l -4.70489,-0.255422 -0.387889,1.133199 -0.515603,1.01174 3.862143,2.889589 c 0,0 -0.544764,0.882989 -0.872942,1.282726 -0.693802,0.845083 -2.300525,2.33823 -2.300525,2.33823 l -3.36584,-3.740183 -0.880867,0.502278 -1.759394,0.646369 0.625287,5.144754 c 0,0 -1.84466,0.284977 -2.774741,0.295366 -0.736085,0.0082 -2.20066,-0.184646 -2.20066,-0.184646 l 0.518691,-5.15229 -1.256254,-0.339971 -1.067457,-0.458297 -3.1366129,4.016067 c 0,0 -1.180855,-0.826489 -1.704839,-1.31773 -0.714633,-0.669977 -1.943271,-2.2045 -1.943271,-2.2045 l 3.57376,-3.32509 -0.6777,-1.204865 -0.408555,-1.090842 -4.7405809,0.200923 c 0,0 -0.207478,-1.59206 -0.208942,-2.392641 -0.0014,-0.76734 0.191879,-2.294014 0.191879,-2.294014 l 4.6889679,0.06307 0.360127,-1.06893 0.678103,-1.296103 -3.579066,-3.04022 c 0,0 1.065733,-1.4035601 1.687976,-2.0235301 0.542606,-0.5406236 1.769925,-1.4654753 1.769925,-1.4654753 l 2.8537485,3.8549134 1.2524374,-0.636168 1.511013,-0.464876 z"
       id="path5264"
       sodipodi:nodetypes="cccscccccscccccscccccscccccscccccscccccscccccscccc" />
    <path
       sodipodi:type="arc"
       style="fill:none;stroke:#000000;stroke-width:0.2;stroke-miterlimit:4;stroke-opacity:1;stroke-dasharray:none"
       id="path5928"
       sodipodi:cx="9.8571424"
       sodipodi:cy="-13.071428"
       sodipodi:rx="3"
       sodipodi:ry="2.7857144"
       d="m 12.857142,-13.071428 a 3,2.7857144 0 1 1 -5.9999996,0 3,2.7857144 0 1 1 5.9999996,0 z"
       transform="translate(4.4285711,32.142858)" />
    <path
       style="fill:#000040;fill-opacity:1;stroke:none"
       d="m 12.596948,31.687327 c -0.155978,-0.108308 -0.149774,-0.485324 0.03571,-2.170461 0.346512,-3.148024 0.408502,-2.894869 -0.811233,-3.312972 -0.569639,-0.195262 -1.132509,-0.399014 -1.250818,-0.452781 -0.157639,-0.07164 -0.6296004,0.43651 -1.7665864,1.902053 L 7.2525428,29.652979 6.8048429,29.345092 C 6.5586079,29.175754 5.7912075,28.453477 5.0995086,27.740032 L 3.8418745,26.442857 4.4581862,25.871429 c 0.3389714,-0.314286 1.1474274,-1.065989 1.7965687,-1.67045 l 1.180257,-1.09902 -0.4775646,-0.90098 C 6.6947868,21.70544 6.439602,21.145373 6.3903703,20.956383 l -0.089512,-0.343617 -2.3517967,0.08338 -2.3517967,0.08338 -0.093543,-0.372705 c -0.117715,-0.469009 -0.1198068,-3.561848 -0.00254,-3.751594 0.051395,-0.08316 1.0219847,-0.140941 2.3674525,-0.140941 l 2.280346,0 0.1611042,-0.392857 C 6.398694,15.905357 6.6562565,15.315726 6.8824478,14.811138 7.1086389,14.30655 7.2436923,13.84735 7.1825665,13.790694 7.1214406,13.734038 6.3642858,13.093474 5.5,12.367218 4.6357143,11.640962 3.907944,10.959909 3.8827326,10.853767 3.8575212,10.747625 4.5209636,9.9767109 5.3570489,9.1406259 L 6.8772042,7.6204703 8.2252553,9.4540309 c 0.7414283,1.0084591 1.4041003,1.8896101 1.4726043,1.9581141 0.07083,0.07083 0.4510024,-0.04087 0.8814384,-0.25899 0.416287,-0.210948 1.066959,-0.475624 1.445937,-0.588169 l 0.689051,-0.204626 0,-2.4944658 0,-2.4944656 0.821428,-0.018435 c 1.136399,-0.025504 2.176659,0.016827 2.642858,0.1075466 l 0.392857,0.076447 0,2.4599509 0,2.4599508 0.535714,0.183709 c 0.294643,0.10104 0.872826,0.34927 1.28485,0.551621 0.890737,0.437455 0.693053,0.56131 2.536579,-1.5892341 0.707142,-0.8249089 1.340178,-1.5037577 1.406747,-1.5085526 0.188667,-0.01359 1.993774,1.7773476 2.495305,2.4757177 l 0.450218,0.626916 -1.709636,1.382955 c -0.940299,0.760626 -1.745079,1.440304 -1.788399,1.510397 -0.04332,0.07009 0.07774,0.436285 0.269022,0.813761 0.191281,0.377476 0.421554,0.960278 0.511717,1.295116 l 0.163931,0.608796 0.671976,-0.08053 c 0.369587,-0.04429 1.411261,-0.09433 2.314833,-0.111188 l 1.642857,-0.03066 0.07143,0.953658 c 0.09384,1.252836 -0.03348,3.051422 -0.214286,3.027217 -0.07857,-0.01051 -1.143679,-0.06375 -2.366903,-0.118295 l -2.224047,-0.09917 -0.184727,0.618296 c -0.1016,0.340062 -0.306136,0.856804 -0.454525,1.148317 -0.14839,0.291513 -0.269798,0.557822 -0.269798,0.591797 0,0.03398 0.835714,0.6863 1.857143,1.449609 1.021428,0.763309 1.857143,1.439441 1.857143,1.502517 0,0.292759 -2.548818,3.14034 -2.81086,3.14034 -0.06669,0 -0.842798,-0.799791 -1.724686,-1.777316 l -1.603432,-1.777314 -1.039974,0.480497 c -0.571986,0.264275 -1.215716,0.524606 -1.430511,0.578517 -0.214796,0.05391 -0.390537,0.192276 -0.390537,0.307479 0,0.115204 0.130261,1.274401 0.289471,2.575994 0.159209,1.301595 0.259816,2.39619 0.223569,2.432436 -0.132278,0.132277 -4.161184,0.19444 -4.344664,0.06703 l 0,0 z m 2.564758,-9.806734 c 1.219467,-0.204977 2.257103,-1.47181 2.263728,-2.763753 0.0089,-1.727443 -1.285917,-2.939758 -3.13972,-2.939758 -1.41715,0 -2.430937,0.624164 -2.921753,1.798851 -0.700902,1.677497 0.371529,3.59711 2.207468,3.951287 0.353571,0.06821 0.739285,0.105243 0.857143,0.0823 0.117857,-0.02294 0.447767,-0.08096 0.733134,-0.128927 z"
       id="path5948" />
    <path
       style="fill:none;stroke:#000000;stroke-width:0.2;stroke-miterlimit:4;stroke-opacity:1;stroke-dasharray:none"
       d="m 29.487173,20.103606 -1.361105,-4.751685 1.820349,-0.633209 c 0,0 0,0 0,0 0,0 2.339843,-0.405783 2.339843,-0.405783 l 1.272417,4.827079 1.462229,0.131984 1.092505,0.266291 2.12156,-4.315246 c 0,0 1.65524,0.780772 2.421417,1.27615 0.571116,0.369261 1.608205,1.255553 1.608205,1.255553 l -2.769687,3.783727 0.980453,1.133403 0.583194,0.940999 4.38993,-1.498876 c 0,0 0.58065,1.427926 0.780911,2.17019 0.19212,0.711982 0.399634,2.175947 0.399634,2.175947 l -4.610683,0.970996 -0.08138,1.19498 -0.236177,1.110713 4.478424,1.791533 c 0,0 -0.297667,0.993897 -0.511203,1.464952 -0.451438,0.995857 -1.616958,2.853976 -1.616958,2.853976 l -4.219182,-2.741595 -0.720853,0.713148 -1.532152,1.079709 1.935541,4.807615 c 0,0 -1.708047,0.7527 -2.603747,1.003457 -0.708881,0.198434 -2.173465,0.391219 -2.173465,0.391219 l -0.832493,-5.110977 -1.301439,-0.0032 -1.149701,-0.166402 -1.990301,4.691038 c 0,0 -1.354529,-0.4927 -1.987801,-0.831585 -0.863685,-0.462188 -2.447622,-1.626428 -2.447622,-1.626428 l 2.59139,-4.136747 -0.96645,-0.988409 -0.676964,-0.947931 -4.527047,1.42103 c 0,0 -0.612464,-1.484113 -0.821084,-2.257036 -0.199952,-0.740876 -0.408392,-2.265554 -0.408392,-2.265554 l 4.545519,-1.152673 0.0712,-1.125715 0.319541,-1.427446 -4.243979,-2.010296 c 0,0 0.666151,-1.631567 1.106731,-2.39146 0.384194,-0.66264 1.330324,-1.873631 1.330324,-1.873631 l 3.754235,2.984956 1.045108,-0.938646 1.339208,-0.840115 z"
       id="path5264-7"
       sodipodi:nodetypes="cccscccccscccccscccccscccccscccccscccccscccccscccc" />
    <path
       sodipodi:type="arc"
       style="fill:none;stroke:#000000;stroke-width:0.2;stroke-miterlimit:4;stroke-opacity:1;stroke-dasharray:none"
       id="path5928-9"
       sodipodi:cx="9.8571424"
       sodipodi:cy="-13.071428"
       sodipodi:rx="3"
       sodipodi:ry="2.7857144"
       d="m 12.857142,-13.071428 a 3,2.7857144 0 1 1 -5.9999996,0 3,2.7857144 0 1 1 5.9999996,0 z"
       transform="matrix(0.96592583,-0.25881905,0.25881905,0.96592583,27.281857,43.41147)" />
    <path
       style="fill:#000040;fill-opacity:1;stroke:none"
       d="m 35.054003,40.85733 c -0.178695,-0.06425 -0.270281,-0.430023 -0.527263,-2.105747 -0.480064,-3.130442 -0.354665,-2.901957 -1.641051,-2.990123 -0.600767,-0.04117 -1.197192,-0.0923 -1.325386,-0.113617 -0.17081,-0.0284 -0.495171,0.584589 -1.214104,2.294468 l -0.981023,2.333223 -0.512132,-0.181523 c -0.281672,-0.09984 -1.209863,-0.598886 -2.062646,-1.108996 l -1.550515,-0.927475 0.447415,-0.71147 c 0.246078,-0.391309 0.832432,-1.326642 1.303008,-2.078517 l 0.855593,-1.367045 -0.694483,-0.746677 c -0.381965,-0.410672 -0.773411,-0.885609 -0.869879,-1.055417 l -0.175395,-0.308741 -2.25008,0.689228 -2.250081,0.689229 -0.186816,-0.335796 c -0.235097,-0.422559 -1.037604,-3.409471 -0.973399,-3.623114 0.02812,-0.09363 0.950683,-0.400648 2.250305,-0.74888 l 2.202645,-0.590197 0.0539,-0.421157 c 0.02967,-0.231643 0.125843,-0.867845 0.21373,-1.413782 0.08789,-0.545937 0.09949,-1.024444 0.02578,-1.063349 -0.07371,-0.03891 -0.970852,-0.461677 -1.993657,-0.939492 -1.022805,-0.477816 -1.902047,-0.947302 -1.95387,-1.043302 -0.05182,-0.096 0.389485,-1.012358 0.980686,-2.036348 l 1.074912,-1.861803 1.776678,1.422182 c 0.977173,0.782201 1.845323,1.461815 1.929224,1.510255 0.08675,0.05008 0.425057,-0.156205 0.784372,-0.478298 0.347505,-0.311503 0.907503,-0.735567 1.244439,-0.942364 l 0.612611,-0.375993 -0.645616,-2.409469 -0.645615,-2.409468 0.788666,-0.230413 c 1.091075,-0.318763 2.106847,-0.547104 2.58064,-0.580141 l 0.399258,-0.02783 0.636682,2.37613 0.636682,2.37613 0.565007,0.0388 c 0.310755,0.02134 0.933483,0.111465 1.38384,0.200282 0.973608,0.192009 0.814716,0.362808 2.038823,-2.191598 0.469545,-0.979822 0.905312,-1.799382 0.968371,-1.821243 0.178721,-0.06196 2.38585,1.20076 3.051043,1.745528 l 0.597135,0.489029 -1.293447,1.778318 c -0.711394,0.978076 -1.312839,1.842887 -1.336541,1.921804 -0.0237,0.07891 0.18801,0.401298 0.470472,0.716404 0.282461,0.315107 0.655728,0.818451 0.829481,1.118544 l 0.315914,0.545623 0.628236,-0.251706 c 0.34553,-0.138437 1.338759,-0.456377 2.207179,-0.706522 l 1.578943,-0.454818 0.315821,0.902676 c 0.4149,1.185859 0.757427,2.956112 0.576517,2.979528 -0.07861,0.01018 -1.121209,0.234428 -2.31687,0.498335 l -2.173931,0.479835 -0.01841,0.645039 c -0.01012,0.354771 -0.07395,0.906843 -0.141831,1.226829 -0.06788,0.319986 -0.11623,0.608643 -0.107437,0.641461 0.0088,0.03282 0.984865,0.446616 2.169049,0.919551 1.184183,0.472934 2.166417,0.909729 2.182742,0.970656 0.07577,0.282783 -1.649189,3.693018 -1.902302,3.760839 -0.06442,0.01726 -1.021082,-0.554406 -2.125922,-1.270374 l -2.008799,-1.301754 -0.880176,0.733289 c -0.484097,0.403311 -1.038514,0.821381 -1.232036,0.929048 -0.193524,0.107666 -0.327466,0.286803 -0.297649,0.39808 0.02982,0.111279 0.455662,1.197263 0.946324,2.413299 0.490662,1.216038 0.871143,2.247296 0.845512,2.291689 -0.09353,0.162006 -3.96907,1.264808 -4.179275,1.189228 l 0,0 z m -0.0608,-10.136386 c 1.124862,-0.513614 1.799261,-2.005841 1.471281,-3.255477 -0.438498,-1.670885 -2.002966,-2.506768 -3.793602,-2.026968 -1.368862,0.366785 -2.186559,1.232068 -2.35662,2.493762 -0.242852,1.801744 1.28987,3.378382 3.154919,3.245315 0.359177,-0.02562 0.741333,-0.08968 0.849237,-0.142349 0.107904,-0.05266 0.411556,-0.194092 0.674785,-0.314283 z"
       id="path5948-6" />
  </g>
</svg>
