<?xml version="1.0" encoding="UTF-8" standalone="no"?>
<!-- Created with Inkscape (http://www.inkscape.org/) -->

<svg
   xmlns:dc="http://purl.org/dc/elements/1.1/"
   xmlns:cc="http://creativecommons.org/ns#"
   xmlns:rdf="http://www.w3.org/1999/02/22-rdf-syntax-ns#"
   xmlns:svg="http://www.w3.org/2000/svg"
   xmlns="http://www.w3.org/2000/svg"
   xmlns:sodipodi="http://sodipodi.sourceforge.net/DTD/sodipodi-0.dtd"
   xmlns:inkscape="http://www.inkscape.org/namespaces/inkscape"
   width="48px"
   height="48px"
   id="svg5296"
   version="1.1"
   inkscape:version="0.47pre4 r22446"
   sodipodi:docname="New document 13">
  <defs
     id="defs5298">
    <inkscape:perspective
       sodipodi:type="inkscape:persp3d"
       inkscape:vp_x="0 : 24 : 1"
       inkscape:vp_y="0 : 1000 : 0"
       inkscape:vp_z="48 : 24 : 1"
       inkscape:persp3d-origin="24 : 16 : 1"
       id="perspective5304" />
    <inkscape:perspective
       id="perspective5314"
       inkscape:persp3d-origin="0.5 : 0.33333333 : 1"
       inkscape:vp_z="1 : 0.5 : 1"
       inkscape:vp_y="0 : 1000 : 0"
       inkscape:vp_x="0 : 0.5 : 1"
       sodipodi:type="inkscape:persp3d" />
    <linearGradient
       gradientTransform="matrix(0,-214.999,-214.999,0,100706,-51430.6)"
       gradientUnits="userSpaceOnUse"
       id="linearGradient3862"
       x1="-239.73441"
       x2="-238.879"
       y1="468.23441"
       y2="468.23441">
      <stop
         id="stop3864"
         offset="0"
         style="stop-color:#ffffff;stop-opacity:1;" />
      <stop
         id="stop3866"
         offset="1"
         style="stop-color:#000040;stop-opacity:1;" />
    </linearGradient>
    <linearGradient
       id="linearGradient5276">
      <stop
         style="stop-color:#000000;stop-opacity:0;"
         offset="0"
         id="stop5278" />
      <stop
         style="stop-color:#000000;stop-opacity:0;"
         offset="1"
         id="stop5280" />
    </linearGradient>
    <inkscape:perspective
       id="perspective5958"
       inkscape:persp3d-origin="0.5 : 0.33333333 : 1"
       inkscape:vp_z="1 : 0.5 : 1"
       inkscape:vp_y="0 : 1000 : 0"
       inkscape:vp_x="0 : 0.5 : 1"
       sodipodi:type="inkscape:persp3d" />
  </defs>
  <sodipodi:namedview
     id="base"
     pagecolor="#ffffff"
     bordercolor="#666666"
     borderopacity="1.0"
     inkscape:pageopacity="0.0"
     inkscape:pageshadow="2"
     inkscape:zoom="7"
     inkscape:cx="22.857143"
     inkscape:cy="25.142857"
     inkscape:current-layer="layer1"
     showgrid="true"
     inkscape:grid-bbox="true"
     inkscape:document-units="px"
     inkscape:window-width="1034"
     inkscape:window-height="905"
     inkscape:window-x="646"
     inkscape:window-y="107"
     inkscape:window-maximized="0" />
  <metadata
     id="metadata5301">
    <rdf:RDF>
      <cc:Work
         rdf:about="">
        <dc:format>image/svg+xml</dc:format>
        <dc:type
           rdf:resource="http://purl.org/dc/dcmitype/StillImage" />
        <dc:title></dc:title>
      </cc:Work>
    </rdf:RDF>
  </metadata>
  <g
     id="layer1"
     inkscape:label="Layer 1"
     inkscape:groupmode="layer">
    <path
       style="fill:none;fill-opacity:1;stroke:#000000;stroke-width:0.20000000000000001;stroke-miterlimit:4;stroke-opacity:1;stroke-dasharray:none"
       d="m 11.734119,5.3428254 -0.0849,-4.94205569 1.922209,-0.140492 c 0,0 0,0 0,0 0,0 2.365139,0.213639 2.365139,0.213639 l -0.02028,4.99192669 1.378245,0.50594 0.986358,0.539978 3.166137,-3.619107 c 0,0 1.396761,1.182575 2.008617,1.859375 0.456084,0.504494 1.228446,1.629005 1.228446,1.629005 l -3.654613,2.937952 0.653699,1.3485426 0.319774,1.059877 4.628284,-0.311606 c 0,0 0.19129,1.529554 0.192615,2.298358 0.0013,0.737446 -0.177159,2.205236 -0.177159,2.205236 l -4.70489,-0.255422 -0.387889,1.133199 -0.515603,1.01174 3.862143,2.889589 c 0,0 -0.544764,0.882989 -0.872942,1.282726 -0.693802,0.845083 -2.300525,2.33823 -2.300525,2.33823 l -3.36584,-3.740183 -0.880867,0.502278 -1.759394,0.646369 0.625287,5.144754 c 0,0 -1.84466,0.284977 -2.774741,0.295366 -0.736085,0.0082 -2.20066,-0.184646 -2.20066,-0.184646 l 0.518691,-5.15229 -1.256254,-0.339971 -1.0674568,-0.458297 -3.136613,4.016067 c 0,0 -1.180855,-0.826489 -1.704839,-1.31773 -0.714633,-0.669977 -1.943271,-2.2045 -1.943271,-2.2045 l 3.57376,-3.32509 -0.6777,-1.204865 -0.408555,-1.090842 -4.74058092,0.200923 c 0,0 -0.207478,-1.59206 -0.208942,-2.392641 -0.0014,-0.76734 0.191879,-2.294014 0.191879,-2.294014 l 4.68896792,0.06307 0.360127,-1.06893 0.678103,-1.2961026 -3.579066,-3.04022 c 0,0 1.065733,-1.40356 1.687976,-2.02353 0.542606,-0.540624 1.769925,-1.4654757 1.769925,-1.4654757 l 2.853749,3.8549137 1.2524368,-0.636168 1.511013,-0.464876 z"
       id="path5264"
       sodipodi:nodetypes="cccscccccscccccscccccscccccscccccscccccscccccscccc" />
    <path
       sodipodi:type="arc"
       style="fill:none;fill-opacity:1;stroke:#000000;stroke-width:0.20000000000000001;stroke-miterlimit:4;stroke-opacity:1;stroke-dasharray:none"
       id="path5928"
       sodipodi:cx="9.8571424"
       sodipodi:cy="-13.071428"
       sodipodi:rx="3"
       sodipodi:ry="2.7857144"
       d="m 12.857142,-13.071428 a 3,2.7857144 0 1 1 -5.9999996,0 3,2.7857144 0 1 1 5.9999996,0 z"
       transform="translate(3.5714282,27.285715)" />
    <path
       style="fill:#000040;stroke:none;fill-opacity:1"
       d="m 11.739805,26.830184 c -0.155978,-0.108308 -0.149774,-0.485324 0.03571,-2.170461 0.346512,-3.148024 0.408502,-2.894869 -0.811233,-3.312972 C 10.394643,21.151489 9.831773,20.947737 9.7134639,20.89397 9.5558244,20.822329 9.0838633,21.33048 7.9468781,22.796023 L 6.3953999,24.795836 5.9477,24.487949 C 5.701465,24.318611 4.9340646,23.596334 4.2423657,22.882889 L 2.9847316,21.585714 3.6010433,21.014286 C 3.9400147,20.7 4.7484707,19.948297 5.397612,19.343836 l 1.180257,-1.09902 -0.4775646,-0.90098 C 5.8376439,16.848297 5.5824591,16.28823 5.5332274,16.09924 l -0.089512,-0.343617 -2.3517967,0.08338 -2.3517967,0.08338 -0.0935431,-0.372705 C 0.5288639,15.080669 0.52677209,11.98783 0.64404117,11.798084 0.69543647,11.714925 1.6660259,11.657143 3.0114937,11.657143 l 2.280346,0 0.1611042,-0.392857 C 5.5415511,11.048214 5.7991136,10.458583 6.0253049,9.953995 6.251496,9.4494066 6.3865494,8.9902067 6.3254236,8.9335509 6.2642977,8.876895 5.5071429,8.2363309 4.6428571,7.5100749 3.7785714,6.783819 3.0508011,6.102766 3.0255897,5.9966237 3.0003783,5.8904816 3.6638207,5.119568 4.499906,4.2834827 l 1.5201553,-1.5201553 1.3480511,1.833561 c 0.7414282,1.0084585 1.4041,1.8896097 1.4726042,1.9581139 0.070832,0.070832 0.4510023,-0.040871 0.8814384,-0.25899 0.416287,-0.2109486 1.066959,-0.4756247 1.445937,-0.5881692 l 0.689051,-0.2046261 0,-2.4944657 0,-2.49446559 0.821428,-0.0184352 C 13.81497,0.4703464 14.85523,0.512678 15.321429,0.60339706 l 0.392857,0.0764473 0,2.45995094 0,2.4599508 0.535714,0.183709 c 0.294643,0.10104 0.872826,0.3492696 1.28485,0.5516213 0.890737,0.4374545 0.693053,0.5613093 2.536579,-1.5892343 0.707142,-0.824909 1.340178,-1.5037578 1.406747,-1.5085527 0.188667,-0.01359 1.993774,1.7773472 2.495305,2.4757176 l 0.450218,0.626916 -1.709636,1.3829553 c -0.940299,0.7606253 -1.745079,1.4403038 -1.788399,1.5103966 -0.04332,0.070093 0.07774,0.4362854 0.269022,0.8137611 0.191281,0.377476 0.421554,0.960278 0.511717,1.295116 l 0.163931,0.608796 0.671976,-0.08053 c 0.369587,-0.04429 1.411261,-0.09433 2.314833,-0.111188 L 26.5,11.728571 l 0.07143,0.953658 c 0.09384,1.252836 -0.03348,3.051422 -0.214286,3.027217 -0.07857,-0.01051 -1.143679,-0.06375 -2.366903,-0.118295 l -2.224047,-0.09917 -0.184727,0.618296 c -0.1016,0.340062 -0.306136,0.856804 -0.454525,1.148317 -0.14839,0.291513 -0.269798,0.557822 -0.269798,0.591797 0,0.03398 0.835714,0.6863 1.857143,1.449609 1.021428,0.763309 1.857143,1.439441 1.857143,1.502517 0,0.292759 -2.548818,3.14034 -2.81086,3.14034 -0.06669,0 -0.842798,-0.799791 -1.724686,-1.777316 l -1.603432,-1.777314 -1.039974,0.480497 c -0.571986,0.264275 -1.215716,0.524606 -1.430511,0.578517 -0.214796,0.05391 -0.390537,0.192276 -0.390537,0.307479 0,0.115204 0.130261,1.274401 0.289471,2.575994 0.159209,1.301595 0.259816,2.39619 0.223569,2.432436 -0.132278,0.132277 -4.161184,0.19444 -4.344664,0.06703 l 0,0 z m 2.564758,-9.806734 c 1.219467,-0.204977 2.257103,-1.47181 2.263728,-2.763753 0.0089,-1.727443 -1.285917,-2.939758 -3.13972,-2.939758 -1.41715,0 -2.430937,0.624164 -2.921753,1.798851 -0.7009027,1.677497 0.371529,3.59711 2.207468,3.951287 0.353571,0.06821 0.739285,0.105243 0.857143,0.0823 0.117857,-0.02294 0.447767,-0.08096 0.733134,-0.128927 z"
       id="path5948" />
    <path
       style="fill:none;stroke:#000000;stroke-width:0.2;stroke-miterlimit:4;stroke-opacity:1;stroke-dasharray:none"
       d="m 33.591262,26.628539 -0.0849,-4.942055 1.922209,-0.140492 c 0,0 0,0 0,0 0,0 2.365139,0.213639 2.365139,0.213639 l -0.02028,4.991926 1.378245,0.50594 0.986358,0.539978 3.166137,-3.619107 c 0,0 1.396761,1.182575 2.008617,1.859375 0.456084,0.504494 1.228446,1.629005 1.228446,1.629005 l -3.654613,2.937952 0.653699,1.348543 0.319774,1.059877 4.628284,-0.311606 c 0,0 0.19129,1.529554 0.192615,2.298358 0.0013,0.737446 -0.177159,2.205236 -0.177159,2.205236 l -4.70489,-0.255422 -0.387889,1.133199 -0.515603,1.01174 3.862143,2.889589 c 0,0 -0.544764,0.882989 -0.872942,1.282726 -0.693802,0.845083 -2.300525,2.33823 -2.300525,2.33823 l -3.36584,-3.740183 -0.880867,0.502278 -1.759394,0.646369 0.625287,5.144754 c 0,0 -1.84466,0.284977 -2.774741,0.295366 -0.736085,0.0082 -2.20066,-0.184646 -2.20066,-0.184646 l 0.518691,-5.15229 -1.256254,-0.339971 -1.067457,-0.458297 -3.136613,4.016067 c 0,0 -1.180855,-0.826489 -1.704839,-1.31773 -0.714633,-0.669977 -1.943271,-2.2045 -1.943271,-2.2045 l 3.57376,-3.32509 -0.6777,-1.204865 -0.408555,-1.090842 -4.740581,0.200923 c 0,0 -0.207478,-1.59206 -0.208942,-2.392641 -0.0014,-0.76734 0.191879,-2.294014 0.191879,-2.294014 l 4.688968,0.06307 0.360127,-1.06893 0.678103,-1.296103 -3.579066,-3.04022 c 0,0 1.065733,-1.40356 1.687976,-2.02353 0.542606,-0.540624 1.769925,-1.465475 1.769925,-1.465475 l 2.853749,3.854913 1.252437,-0.636168 1.511013,-0.464876 z"
       id="path5264-7"
       sodipodi:nodetypes="cccscccccscccccscccccscccccscccccscccccscccccscccc" />
    <path
       sodipodi:type="arc"
       style="fill:none;stroke:#000000;stroke-width:0.2;stroke-miterlimit:4;stroke-opacity:1;stroke-dasharray:none"
       id="path5928-9"
       sodipodi:cx="9.8571424"
       sodipodi:cy="-13.071428"
       sodipodi:rx="3"
       sodipodi:ry="2.7857144"
       d="m 12.857142,-13.071428 a 3,2.7857144 0 1 1 -5.9999996,0 3,2.7857144 0 1 1 5.9999996,0 z"
       transform="translate(25.428571,48.571429)" />
    <path
       style="fill:#000040;fill-opacity:1;stroke:none"
       d="m 33.596948,48.115898 c -0.155978,-0.108308 -0.149774,-0.485324 0.03571,-2.170461 0.346512,-3.148024 0.408502,-2.894869 -0.811233,-3.312972 -0.569639,-0.195262 -1.132509,-0.399014 -1.250818,-0.452781 -0.15764,-0.07164 -0.629601,0.43651 -1.766586,1.902053 l -1.551478,1.999813 -0.4477,-0.307887 c -0.246235,-0.169338 -1.013635,-0.891615 -1.705334,-1.60506 L 24.841875,42.871428 25.458186,42.3 c 0.338972,-0.314286 1.147428,-1.065989 1.796569,-1.67045 l 1.180257,-1.09902 -0.477565,-0.90098 c -0.26266,-0.495539 -0.517845,-1.055606 -0.567077,-1.244596 l -0.08951,-0.343617 -2.351796,0.08338 -2.351797,0.08338 -0.09354,-0.372705 c -0.11772,-0.469009 -0.119812,-3.561848 -0.0025,-3.751594 0.0514,-0.08316 1.021985,-0.140941 2.367452,-0.140941 l 2.280346,0 L 27.310087,32.55 c 0.08861,-0.216072 0.34617,-0.805703 0.572361,-1.310291 0.226191,-0.504588 0.361244,-0.963788 0.300119,-1.020444 -0.06113,-0.05666 -0.818281,-0.69722 -1.682567,-1.423476 -0.864286,-0.726256 -1.592056,-1.407309 -1.617267,-1.513451 -0.02521,-0.106142 0.638231,-0.877056 1.474316,-1.713141 l 1.520155,-1.520156 1.348051,1.833561 c 0.741429,1.008459 1.4041,1.88961 1.472605,1.958114 0.07083,0.07083 0.451002,-0.04087 0.881438,-0.25899 0.416287,-0.210948 1.066959,-0.475624 1.445937,-0.588169 l 0.689051,-0.204626 0,-2.494466 0,-2.494465 0.821428,-0.01844 c 1.136399,-0.02551 2.176659,0.01683 2.642858,0.107546 l 0.392857,0.07645 0,2.459951 0,2.459951 0.535714,0.183709 c 0.294643,0.10104 0.872826,0.34927 1.28485,0.551621 0.890737,0.437455 0.693053,0.56131 2.536579,-1.589234 0.707142,-0.824909 1.340178,-1.503758 1.406747,-1.508553 0.188667,-0.01359 1.993774,1.777348 2.495305,2.475718 l 0.450218,0.626916 -1.709636,1.382955 c -0.940299,0.760626 -1.745079,1.440304 -1.788399,1.510397 -0.04332,0.07009 0.07774,0.436285 0.269022,0.813761 0.191281,0.377476 0.421554,0.960278 0.511717,1.295116 l 0.163931,0.608796 0.671976,-0.08053 c 0.369587,-0.04429 1.411261,-0.09433 2.314833,-0.111188 l 1.642857,-0.03066 0.07143,0.953658 c 0.09384,1.252836 -0.03348,3.051422 -0.214286,3.027217 -0.07857,-0.01051 -1.143679,-0.06375 -2.366903,-0.118295 l -2.224047,-0.09917 -0.184727,0.618296 c -0.1016,0.340062 -0.306136,0.856804 -0.454525,1.148317 -0.14839,0.291513 -0.269798,0.557822 -0.269798,0.591797 0,0.03398 0.835714,0.6863 1.857143,1.449609 1.021428,0.763309 1.857143,1.439441 1.857143,1.502517 0,0.292759 -2.548818,3.14034 -2.81086,3.14034 -0.06669,0 -0.842798,-0.799791 -1.724686,-1.777316 l -1.603432,-1.777314 -1.039974,0.480497 c -0.571986,0.264275 -1.215716,0.524606 -1.430511,0.578517 -0.214796,0.05391 -0.390537,0.192276 -0.390537,0.307479 0,0.115204 0.130261,1.274401 0.289471,2.575994 0.159209,1.301595 0.259816,2.39619 0.223569,2.432436 -0.132278,0.132277 -4.161184,0.19444 -4.344664,0.06703 l 0,0 z m 2.564758,-9.806734 c 1.219467,-0.204977 2.257103,-1.47181 2.263728,-2.763753 0.0089,-1.727443 -1.285917,-2.939758 -3.13972,-2.939758 -1.41715,0 -2.430937,0.624164 -2.921753,1.798851 -0.700903,1.677497 0.371529,3.59711 2.207468,3.951287 0.353571,0.06821 0.739285,0.105243 0.857143,0.0823 0.117857,-0.02294 0.447767,-0.08096 0.733134,-0.128927 z"
       id="path5948-6" />
  </g>
</svg>
